# xmcd
#
# Track frame offsets: 
#        150
#        33620
#        65822
#        91642
#        122267
#        151160
#
# Disc length: 2472 seconds
#
# Revision: 3
# Processed by: cddbd v1.5.2PL0 Copyright (c) Steve Scherf et al.
# Submitted via: ExactAudioCopy v0.95b4
#
DISCID=4009a606
DTITLE=Donald Byrd - The Cat Walk
DYEAR=1961
DGENRE=Jazz
TTITLE0=Say You're Mine
TTITLE1=Duke's Mixture
TTITLE2=Each Time I Think Of You
TTITLE3=The Cat Walk
TTITLE4=Cute
TTITLE5=Hello Bright Sunflower
EXTD=YEAR: 1961
EXTT0=
EXTT1=
EXTT2=
EXTT3=
EXTT4=
EXTT5=
PLAYORDER=
